<?xml version="1.0" encoding="utf-8"?>
<svg xmlns="http://www.w3.org/2000/svg" xmlns:svg="http://www.w3.org/2000/svg" version="1.1" viewBox="0 0 1400 700">
	<title>The titlepage for the Standard Ebooks edition of The Story of Gösta Berling, by Selma Lagerlöf. Translated by Pauline Bancroft Flach</title>
	<g aria-label="THE STORY OF">
		<path d="m 330.04678,68.245613 h 18.33918 V 130 H 365.9766 V 68.245613 h 18.33918 V 52.807016 h -54.269 z"/>
		<path d="m 413.24122,99.029239 h 24.88889 V 130 h 17.59065 V 52.807016 H 438.13011 V 83.590642 H 413.24122 V 52.807016 H 395.65058 V 130 h 17.59064 z"/>
		<path d="M 516.08626,52.807016 H 471.92251 V 130 h 44.16375 v -15.4386 h -26.5731 V 99.029239 h 25.45029 V 83.590642 H 489.51316 V 68.245613 h 26.5731 z"/>
		<path d="m 588.40059,51.403507 c -12.44445,0 -25.16959,9.169591 -25.16959,23.578948 0,8.046784 5.4269,15.251462 14.69006,19.836258 9.16959,4.584795 17.40351,7.111107 17.40351,12.725147 0,7.20468 -7.29825,7.57895 -11.13451,7.57895 -8.60818,0 -18.90058,-8.70176 -18.90058,-8.70176 l -8.79532,14.78363 c 0,0 10.94736,10.19883 29.00584,10.19883 15.06433,0 29.09942,-6.45614 29.09942,-24.88889 0,-10.105264 -9.45029,-17.40351 -18.05848,-21.052632 -8.79532,-3.742691 -16.09357,-6.83041 -16.09357,-11.134504 0,-4.210526 3.18129,-6.923976 9.16959,-6.923976 7.95322,0 15.62573,5.333333 15.62573,5.333333 l 7.11112,-14.035088 c 0,0 -9.91813,-7.298246 -23.95322,-7.298246 z"/>
		<path d="M 618.38741,68.245613 H 636.7266 V 130 h 17.59064 V 68.245613 h 18.33918 V 52.807016 h -54.26901 z"/>
		<path d="m 677.60525,91.356724 c 0,22.549706 16.09357,40.046786 38.92398,40.046786 22.17544,0 38.83041,-17.49708 38.83041,-40.046786 0,-22.549708 -17.40351,-39.953217 -38.83041,-39.953217 -21.23976,0 -38.92398,17.403509 -38.92398,39.953217 z m 18.99416,0 c 0,-11.508772 6.36257,-23.017544 19.92982,-23.017544 13.66082,0 19.83626,11.508772 19.83626,23.017544 0,11.508776 -5.80117,23.017546 -19.83626,23.017546 -14.40936,0 -19.92982,-11.50877 -19.92982,-23.017546 z"/>
		<path d="M 768.12135,52.807016 V 130 h 17.59064 V 99.497075 L 809.29094,130 h 22.36258 l -26.5731,-31.906433 c 9.45029,-2.994152 15.81286,-10.760234 15.81286,-22.362574 0,-15.157895 -10.8538,-22.923977 -25.16959,-22.923977 z m 17.59064,34.245615 V 66.842104 h 2.05848 c 6.64328,0 14.5965,0.467836 14.5965,10.105263 0,9.637428 -7.95322,10.105264 -14.5965,10.105264 z"/>
		<path d="m 823.36256,52.807016 28.44444,42.5731 V 130 h 17.59065 V 95.380116 l 28.44444,-42.5731 h -21.1462 L 860.60233,77.508771 844.50876,52.807016 Z"/>
		<path d="m 932.80264,91.356724 c 0,22.549706 16.09357,40.046786 38.92398,40.046786 22.17544,0 38.83038,-17.49708 38.83038,-40.046786 0,-22.549708 -17.40348,-39.953217 -38.83038,-39.953217 -21.23977,0 -38.92398,17.403509 -38.92398,39.953217 z m 18.99415,0 c 0,-11.508772 6.36258,-23.017544 19.92983,-23.017544 13.66082,0 19.83626,11.508772 19.83626,23.017544 0,11.508776 -5.80117,23.017546 -19.83626,23.017546 -14.40936,0 -19.92983,-11.50877 -19.92983,-23.017546 z"/>
		<path d="m 1067.9503,52.807016 h -44.6316 V 130 h 17.5907 V 99.029239 h 24.9824 V 83.590642 h -24.9824 V 68.245613 h 27.0409 z"/>
	</g>
	<g aria-label="GÖSTA BERLING">
		<path d="m 351.40935,196.77193 h -35.64912 v 13.56725 h 17.77778 c 0,9.45029 -8.32749,14.87719 -16.74854,14.87719 -10.8538,0 -19.64913,-10.66666 -19.64913,-23.76608 0,-13.38012 8.79533,-24.14035 19.64913,-24.14035 6.83041,0 12.72514,2.71345 17.21637,9.91813 l 11.50877,-12.63158 c -6.73684,-8.14035 -16.18713,-13.19298 -29.75438,-13.19298 -21.70761,0 -37.61404,17.87134 -37.61404,40.04678 0,22.08187 16.84211,39.95322 37.61404,39.95322 15.15789,0 31.43859,-8.32749 35.64912,-27.88304 z"/>
		<path d="m 388.42105,136.79532 c -4.77193,0 -8.60819,3.83626 -8.60819,8.60819 0,4.77193 3.83626,8.60818 8.60819,8.60818 4.77193,0 8.60819,-3.83625 8.60819,-8.60818 0,-4.77193 -3.83626,-8.60819 -8.60819,-8.60819 z m 22.17544,0 c -4.77193,0 -8.60819,3.83626 -8.60819,8.60819 0,4.77193 3.83626,8.60818 8.60819,8.60818 4.77193,0 8.60818,-3.83625 8.60818,-8.60818 0,-4.77193 -3.83625,-8.60819 -8.60818,-8.60819 z m -49.96492,64.5614 c 0,22.54971 16.09357,40.04679 38.92398,40.04679 22.17544,0 38.83041,-17.49708 38.83041,-40.04679 0,-22.5497 -17.40351,-39.95321 -38.83041,-39.95321 -21.23977,0 -38.92398,17.40351 -38.92398,39.95321 z m 18.99416,0 c 0,-11.50877 6.36257,-23.01754 19.92982,-23.01754 13.66082,0 19.83626,11.50877 19.83626,23.01754 0,11.50878 -5.80117,23.01755 -19.83626,23.01755 -14.40936,0 -19.92982,-11.50877 -19.92982,-23.01755 z"/>
		<path d="m 479.5921,161.40351 c -12.44444,0 -25.16959,9.16959 -25.16959,23.57895 0,8.04678 5.4269,15.25146 14.69006,19.83625 9.16959,4.5848 17.40351,7.11111 17.40351,12.72515 0,7.20468 -7.29825,7.57895 -11.13451,7.57895 -8.60818,0 -18.90058,-8.70176 -18.90058,-8.70176 l -8.79532,14.78363 c 0,0 10.94737,10.19883 29.00584,10.19883 15.06433,0 29.09942,-6.45614 29.09942,-24.88889 0,-10.10526 -9.45029,-17.40351 -18.05848,-21.05263 -8.79532,-3.74269 -16.09357,-6.83041 -16.09357,-11.13451 0,-4.21052 3.18129,-6.92397 9.16959,-6.92397 7.95322,0 15.62574,5.33333 15.62574,5.33333 l 7.11111,-14.03509 c 0,0 -9.91813,-7.29824 -23.95322,-7.29824 z"/>
		<path d="m 509.57894,178.24561 h 18.33918 V 240 h 17.59065 v -61.75439 h 18.33918 v -15.43859 h -54.26901 z"/>
		<path d="m 609.81872,162.80702 h -16.2807 L 562.38012,240 h 18.90059 l 5.7076,-15.4386 h 29.38012 L 622.07603,240 h 18.90058 z m 0.5614,46.31579 h -17.40351 l 8.60819,-22.45614 h 0.18713 z"/>
		<path d="M 679.48098,162.80702 V 240 h 29.28655 c 16,0 25.26316,-8.79532 25.26316,-21.52047 0,-12.44444 -6.83041,-17.77778 -16.46783,-19.46199 6.5497,-3.36842 9.63742,-9.45029 9.63742,-16.5614 0,-14.69006 -10.47953,-19.64912 -23.76608,-19.64912 z m 17.59065,30.22222 v -16.65497 h 1.40351 c 7.67251,0 11.6959,2.33918 11.6959,7.85965 0,6.45614 -4.11696,8.79532 -11.6959,8.79532 z m 0,33.40351 v -18.24562 h 5.52046 c 8.32749,0 12.91229,2.52632 12.91229,9.63743 0,6.08187 -4.5848,8.60819 -12.91229,8.60819 z"/>
		<path d="M 790.96199,162.80702 H 746.79824 V 240 h 44.16375 v -15.4386 h -26.5731 v -15.53216 h 25.45029 v -15.4386 h -25.45029 v -15.34503 h 26.5731 z"/>
		<path d="M 806.07455,162.80702 V 240 h 17.59064 V 209.49708 L 847.24414,240 h 22.36257 l -26.5731,-31.90643 c 9.4503,-2.99416 15.81287,-10.76024 15.81287,-22.36258 0,-15.15789 -10.8538,-22.92397 -25.16959,-22.92397 z m 17.59064,34.24561 V 176.8421 h 2.05848 c 6.64328,0 14.59649,0.46784 14.59649,10.10527 0,9.63742 -7.95321,10.10526 -14.59649,10.10526 z"/>
		<path d="M 895.73392,162.80702 H 878.14328 V 240 h 44.16374 v -15.4386 h -26.5731 z"/>
		<path d="M 953.54825,162.80702 H 935.95761 V 240 h 17.59064 z"/>
		<path d="m 987.42252,192.09357 h 0.18713 L 1018.2997,240 h 17.5907 v -77.19298 h -17.5907 v 47.90643 h -0.1871 L 987.42252,162.80702 H 969.83187 V 240 h 17.59065 z"/>
		<path d="m 1121.9357,196.77193 h -35.6492 v 13.56725 h 17.7778 c 0,9.45029 -8.3275,14.87719 -16.7485,14.87719 -10.8538,0 -19.6491,-10.66666 -19.6491,-23.76608 0,-13.38012 8.7953,-24.14035 19.6491,-24.14035 6.8304,0 12.7251,2.71345 17.2163,9.91813 l 11.5088,-12.63158 c -6.7368,-8.14035 -16.1871,-13.19298 -29.7544,-13.19298 -21.7076,0 -37.614,17.87134 -37.614,40.04678 0,22.08187 16.8421,39.95322 37.614,39.95322 15.1579,0 31.4386,-8.32749 35.6492,-27.88304 z"/>
	</g>
	<g aria-label="SELMA LAGERLÖF">
		<path d="m 366.22095,341.05263 c -9.33334,0 -18.8772,6.8772 -18.8772,17.68421 0,6.03509 4.07018,11.4386 11.01755,14.8772 6.87719,3.43859 13.05263,5.33333 13.05263,9.54385 0,5.40351 -5.47369,5.68422 -8.35088,5.68422 -6.45614,0 -14.17544,-6.52632 -14.17544,-6.52632 l -6.59649,11.08772 c 0,0 8.21053,7.64912 21.75439,7.64912 11.29824,0 21.82456,-4.8421 21.82456,-18.66666 0,-7.57895 -7.08772,-13.05264 -13.54386,-15.78948 -6.59649,-2.80702 -12.07018,-5.12281 -12.07018,-8.35088 0,-3.15789 2.38597,-5.19298 6.8772,-5.19298 5.96491,0 11.71929,4 11.71929,4 l 5.33334,-10.52631 c 0,0 -7.4386,-5.47369 -17.96491,-5.47369 z"/>
		<path d="m 430.15954,342.10526 h -33.1228 V 400 h 33.1228 v -11.57895 h -19.92982 v -11.64912 h 19.08772 v -11.57895 h -19.08772 v -11.50877 h 19.92982 z"/>
		<path d="M 455.93696,342.10526 H 442.74397 V 400 h 33.12281 v -11.57895 h -19.92982 z"/>
		<path d="m 535.21436,400 h 13.19299 l -5.19299,-57.89474 h -14.03508 l -12.84211,33.40351 -12.8421,-33.40351 H 489.45998 L 484.267,400 h 13.19298 l 2.73684,-34.31579 h 0.35088 l 11.85965,33.96491 h 7.85965 l 11.85964,-33.96491 h 0.35088 z"/>
		<path d="M 588.09595,342.10526 H 575.88542 L 552.517,400 h 14.17544 l 4.2807,-11.57895 h 22.03509 L 597.28893,400 h 14.17544 z m 0.42105,34.73685 H 575.46437 L 581.92051,360 h 0.14035 z"/>
		<path d="M 656.03564,342.10526 H 642.84266 V 400 h 33.12281 v -11.57895 h -19.92983 z"/>
		<path d="M 717.95341,342.10526 H 705.74289 L 682.37447,400 h 14.17544 l 4.2807,-11.57895 h 22.03508 L 727.1464,400 h 14.17543 z m 0.42106,34.73685 H 705.32183 L 711.77798,360 h 0.14035 z"/>
		<path d="m 800.86239,367.57895 h -26.73684 v 10.17544 h 13.33333 c 0,7.08772 -6.24561,11.15789 -12.5614,11.15789 -8.14035,0 -14.73684,-8 -14.73684,-17.82456 0,-10.03509 6.59649,-18.10526 14.73684,-18.10526 5.12281,0 9.54386,2.03508 12.91228,7.43859 l 8.63158,-9.47368 c -5.05263,-6.10526 -12.14035,-9.89474 -22.31579,-9.89474 -16.2807,0 -28.21053,13.40351 -28.21053,30.03509 0,16.5614 12.63158,29.96491 28.21053,29.96491 11.36842,0 23.57895,-6.24561 26.73684,-20.91228 z"/>
		<path d="m 844.74836,342.10526 h -33.1228 V 400 h 33.1228 v -11.57895 h -19.92982 v -11.64912 h 19.08772 v -11.57895 h -19.08772 v -11.50877 h 19.92982 z"/>
		<path d="M 857.3328,342.10526 V 400 h 13.19299 V 377.12281 L 888.21,400 h 16.77193 L 885.0521,376.07018 c 7.08772,-2.24562 11.85965,-8.07018 11.85965,-16.77193 0,-11.36842 -8.14035,-17.19299 -18.87719,-17.19299 z m 13.19299,25.68421 v -15.15789 h 1.54386 c 4.98245,0 10.94736,0.35088 10.94736,7.57895 0,7.22807 -5.96491,7.57894 -10.94736,7.57894 z"/>
		<path d="M 925.8273,342.10526 H 912.63432 V 400 h 33.1228 V 388.42105 H 925.8273 Z"/>
		<path d="m 975.49065,322.59649 c -3.57895,0 -6.45614,2.87719 -6.45614,6.45614 0,3.57895 2.87719,6.45614 6.45614,6.45614 3.57895,0 6.45614,-2.87719 6.45614,-6.45614 0,-3.57895 -2.87719,-6.45614 -6.45614,-6.45614 z m 16.63158,0 c -3.57895,0 -6.45614,2.87719 -6.45614,6.45614 0,3.57895 2.87719,6.45614 6.45614,6.45614 3.57894,0 6.45614,-2.87719 6.45614,-6.45614 0,-3.57895 -2.8772,-6.45614 -6.45614,-6.45614 z m -37.47369,48.42105 c 0,16.91228 12.07018,30.03509 29.19299,30.03509 16.63157,0 29.12277,-13.12281 29.12277,-30.03509 0,-16.91228 -13.0526,-29.96491 -29.12277,-29.96491 -15.92983,0 -29.19299,13.05263 -29.19299,29.96491 z m 14.24562,0 c 0,-8.63157 4.77193,-17.26315 14.94737,-17.26315 10.24561,0 14.87719,8.63158 14.87719,17.26315 0,8.63158 -4.35088,17.26316 -14.87719,17.26316 -10.80702,0 -14.94737,-8.63158 -14.94737,-17.26316 z"/>
		<path d="m 1057.2593,342.10526 h -33.4737 V 400 h 13.193 v -23.22807 h 18.7368 v -11.57895 h -18.7368 v -11.50877 h 20.2807 z"/>
	</g>
	<g aria-label="translated by">
		<path d="m 594.75525,573.42189 c 0,1.19023 2.50797,0.25505 2.50797,1.14772 0,1.14771 -1.78533,8.034 -1.78533,11.94474 0,3.31562 1.57279,3.99575 2.72051,3.99575 2.63549,0 6.24867,-2.89055 6.24867,-3.99575 0,-0.59512 -0.34007,-0.59512 -0.46759,-0.59512 -0.68013,0 -1.65781,1.87036 -3.99575,1.87036 -0.17003,0 -1.74283,-0.085 -1.74283,-2.33794 0,-0.68013 0.97769,-6.20617 1.36026,-8.84166 0.25505,-1.74283 0.12752,-2.50797 1.36025,-2.50797 0.93518,0 2.76302,0.21254 3.44315,0.21254 0.76514,0 1.02019,-0.25505 1.02019,-1.23273 0,-0.5101 -0.21254,-0.80765 -1.10521,-0.80765 -0.46758,0 -0.80765,0.0425 -2.46546,0.0425 -1.40276,0 -1.48778,-0.0425 -1.48778,-0.29755 0,-0.63762 0.76515,-2.63549 0.76515,-3.1881 0,-0.38257 -0.21254,-0.51009 -0.42508,-0.51009 -0.68013,0 -0.76515,0.5526 -2.46547,2.33793 -1.87035,1.95537 -3.48565,1.91286 -3.48565,2.76302 z"/>
		<path d="m 606.86272,577.41764 c 0,0.59511 0.34006,0.72264 0.51009,0.72264 0.21254,0 0.34006,-0.12753 0.46759,-0.25505 0.25505,-0.29756 0.59511,-2.84804 2.33794,-2.84804 0.76514,0 1.44527,0.76515 1.44527,2.89055 0,3.18809 -1.82784,9.43677 -1.82784,11.13708 0,1.0202 0.85015,1.10521 1.27523,1.10521 h 0.21254 c 1.53029,0 1.44528,0 2.38045,-7.22635 l 0.21254,-1.40277 c 0.21254,-1.78533 1.27524,-7.35387 3.1881,-7.35387 1.53028,0 1.36025,1.78533 2.29543,1.78533 0.76514,0 0.85016,-1.31775 0.93517,-1.6153 0.12753,-0.46759 0.46759,-1.02019 0.46759,-1.5728 0,-0.59511 -0.46759,-1.31774 -1.57279,-1.31774 -3.14559,0 -5.27099,4.37832 -5.56855,4.37832 -0.085,0 -0.12752,-0.0425 -1.19022,-2.80553 -0.25505,-0.68013 -0.68013,-1.48778 -1.5728,-1.48778 -0.38257,0 -3.99574,1.02019 -3.99574,5.8661 z"/>
		<path d="m 620.45398,585.15409 c 0,2.76302 0.51009,5.48353 4.54835,5.48353 4.03826,0 7.56642,-5.10096 7.77896,-5.10096 0.29755,0 -0.085,4.7609 2.63549,4.7609 1.14772,0 3.06057,-1.95537 4.12327,-3.48566 0.55261,-0.76514 0.76515,-1.40276 0.76515,-1.82784 0,-0.17003 -0.0425,-0.46759 -0.38257,-0.46759 -0.80766,0 -1.70032,2.76302 -3.10309,2.76302 -0.80765,0 -1.44527,-1.40276 -1.44527,-2.50797 0,-1.6153 0.42508,-3.57067 0.76515,-5.44102 0.34006,-1.91286 0.59511,-3.86823 0.97768,-5.44102 0.29756,-1.23273 0.85016,-2.25292 0.85016,-2.93305 0,-0.46759 -0.21254,-0.63762 -0.46759,-0.63762 -0.85016,0 -1.36025,2.08289 -2.21041,2.08289 -1.40277,0 -2.29543,-0.46759 -3.61318,-0.46759 -1.10521,0 -1.95537,0.21254 -3.10308,0.76515 -2.25292,1.0627 -4.20829,3.10308 -5.73858,5.52603 -1.31775,2.1254 -2.38044,4.54836 -2.38044,6.9288 z m 2.97555,-0.25505 c 0,-0.76514 0.085,-1.53028 0.21254,-2.29543 0.38258,-2.21041 1.40277,-4.12327 2.6355,-6.16365 1.27524,-2.16791 3.52816,-3.44315 5.27099,-3.44315 0.89266,0 2.80552,0.29756 2.80552,1.48778 0,0.12753 -1.14771,7.94899 -2.1679,9.98937 -0.38258,0.76515 -2.38045,3.82572 -5.44102,3.82572 -1.78534,0 -3.31563,-1.27524 -3.31563,-3.40064 z"/>
		<path d="m 641.69999,576.35494 c 0,0.46759 0.085,0.80765 0.38257,0.80765 0.93518,0 1.40277,-2.38044 2.72051,-2.38044 0.42508,0 0.97769,0.85016 0.97769,2.33794 0,3.27311 -1.87036,9.86184 -1.87036,11.64718 0,1.23273 0.34007,1.31775 1.48778,1.31775 1.10521,0 1.44527,-0.17004 1.5728,-1.10521 0.085,-0.59511 -0.21254,-0.085 0.85016,-5.82359 1.02019,-5.48353 0.51009,-5.10096 2.33794,-7.69395 0.97768,-1.40276 1.78533,-1.87035 2.76301,-1.87035 2.76302,0 2.97556,2.80553 2.97556,3.48566 0,1.57279 -0.89267,7.26886 -0.89267,10.49947 0,1.48777 0.72264,2.678 1.5728,2.678 1.87035,0 5.61105,-2.97556 5.61105,-4.63337 0,-0.25505 -0.085,-0.5101 -0.38257,-0.5101 -0.63762,0 -0.80765,0.5101 -1.31775,1.14772 0,0 -0.97768,0.93517 -1.70032,0.93517 -0.46758,0 -0.80765,-0.34006 -0.80765,-1.53028 0,-1.44527 0.72264,-5.95112 0.72264,-8.92668 0,-2.678 -0.59511,-5.31349 -3.57067,-5.31349 -1.78534,0 -4.03826,1.53028 -5.18597,2.42295 -1.5728,1.19022 -1.87035,2.1254 -2.1254,2.1254 -0.38257,0 0.51009,-4.46334 -1.95537,-4.46334 -1.6153,0 -4.16578,3.1881 -4.16578,4.84591 z"/>
		<path d="m 663.65071,587.70457 c 0,2.25292 3.06057,2.80553 4.71838,2.80553 5.44102,0 6.63125,-4.03826 6.63125,-5.56855 0,-2.84803 -1.61531,-4.03826 -2.93305,-5.52603 -1.02019,-1.10521 -3.35813,-2.84804 -3.35813,-4.46334 0,-1.27524 0.63762,-2.25292 2.25292,-2.25292 1.65781,0 1.82784,2.38044 3.35813,2.38044 0.21254,0 1.6153,-0.12752 1.6153,-1.44527 0,-1.65781 -1.65781,-2.21041 -3.95324,-2.21041 -3.31562,0 -5.78108,1.95536 -5.78108,4.8034 0,2.55048 1.6153,3.65568 3.31562,5.39851 1.53029,1.53029 2.93305,2.76302 2.93305,4.76089 0,0.5101 -0.29756,2.72051 -3.40064,2.72051 -2.59299,0 -1.87035,-2.93305 -4.03826,-2.93305 -0.51009,0 -1.36025,0.21254 -1.36025,1.53029 z"/>
		<path d="m 678.75033,586.34431 c 0,3.99575 1.23273,3.99575 2.08289,3.99575 0.80765,0 2.59299,-0.85016 3.6982,-2.12539 1.02019,-1.19023 2.12539,-2.6355 2.12539,-3.06058 0,-0.42508 -0.21254,-0.68013 -0.51009,-0.68013 -1.10521,0 -1.53029,3.01807 -3.86823,3.01807 -0.5526,0 -0.68012,-0.21254 -0.68012,-1.65781 0,-1.44527 0.51009,-4.12327 1.23273,-9.13921 1.36025,-9.13922 0.63762,-7.56642 2.21041,-15.81297 0.12752,-0.80765 0.42508,-1.36025 0.42508,-1.95537 0,-0.42507 -0.21254,-0.68012 -0.89267,-0.68012 -1.1052,0 -2.04038,0.42508 -5.14346,0.63762 -0.5526,0.0425 -0.63762,0.38257 -0.63762,0.59511 0,0.46759 0.38257,0.59511 1.23273,0.59511 0.5101,0 0.59511,-0.0425 1.23273,-0.0425 0.63762,0 1.0627,0.34007 1.0627,0.85016 0,0.5101 -0.63762,4.33581 -1.36025,8.92667 -0.42508,2.72051 -0.63762,5.73858 -1.0202,8.41658 -0.085,0.68013 -1.19022,5.69607 -1.19022,8.11902 z"/>
		<path d="m 689.28036,585.15409 c 0,2.76302 0.51009,5.48353 4.54835,5.48353 4.03826,0 7.56642,-5.10096 7.77896,-5.10096 0.29755,0 -0.085,4.7609 2.63549,4.7609 1.14772,0 3.06058,-1.95537 4.12328,-3.48566 0.5526,-0.76514 0.76514,-1.40276 0.76514,-1.82784 0,-0.17003 -0.0425,-0.46759 -0.38257,-0.46759 -0.80765,0 -1.70032,2.76302 -3.10308,2.76302 -0.80766,0 -1.44528,-1.40276 -1.44528,-2.50797 0,-1.6153 0.42508,-3.57067 0.76515,-5.44102 0.34006,-1.91286 0.59511,-3.86823 0.97768,-5.44102 0.29756,-1.23273 0.85016,-2.25292 0.85016,-2.93305 0,-0.46759 -0.21254,-0.63762 -0.46759,-0.63762 -0.85016,0 -1.36025,2.08289 -2.21041,2.08289 -1.40276,0 -2.29543,-0.46759 -3.61318,-0.46759 -1.10521,0 -1.95537,0.21254 -3.10308,0.76515 -2.25292,1.0627 -4.20829,3.10308 -5.73858,5.52603 -1.31774,2.1254 -2.38044,4.54836 -2.38044,6.9288 z m 2.97556,-0.25505 c 0,-0.76514 0.085,-1.53028 0.21253,-2.29543 0.38258,-2.21041 1.40277,-4.12327 2.6355,-6.16365 1.27524,-2.16791 3.52816,-3.44315 5.27099,-3.44315 0.89266,0 2.80552,0.29756 2.80552,1.48778 0,0.12753 -1.14771,7.94899 -2.1679,9.98937 -0.38257,0.76515 -2.38045,3.82572 -5.44102,3.82572 -1.78534,0 -3.31562,-1.27524 -3.31562,-3.40064 z"/>
		<path d="m 711.15402,573.42189 c 0,1.19023 2.50797,0.25505 2.50797,1.14772 0,1.14771 -1.78533,8.034 -1.78533,11.94474 0,3.31562 1.57279,3.99575 2.72051,3.99575 2.63549,0 6.24867,-2.89055 6.24867,-3.99575 0,-0.59512 -0.34006,-0.59512 -0.46759,-0.59512 -0.68012,0 -1.65781,1.87036 -3.99575,1.87036 -0.17003,0 -1.74282,-0.085 -1.74282,-2.33794 0,-0.68013 0.97768,-6.20617 1.36025,-8.84166 0.25505,-1.74283 0.12753,-2.50797 1.36026,-2.50797 0.93517,0 2.76302,0.21254 3.44314,0.21254 0.76515,0 1.02019,-0.25505 1.02019,-1.23273 0,-0.5101 -0.21254,-0.80765 -1.1052,-0.80765 -0.46759,0 -0.80765,0.0425 -2.46547,0.0425 -1.40276,0 -1.48777,-0.0425 -1.48777,-0.29755 0,-0.63762 0.76514,-2.63549 0.76514,-3.1881 0,-0.38257 -0.21254,-0.51009 -0.42508,-0.51009 -0.68013,0 -0.76514,0.5526 -2.46546,2.33793 -1.87035,1.95537 -3.48566,1.91286 -3.48566,2.76302 z"/>
		<path d="m 723.40296,583.75133 c 0,3.78321 1.31775,6.75877 6.71626,6.75877 3.69819,0 7.39639,-2.97556 7.39639,-3.95325 0,-0.25504 -0.17003,-0.42508 -0.5101,-0.42508 -0.46759,0 -2.1679,1.82785 -4.59086,1.82785 -4.20829,0 -6.12115,-2.1254 -6.12115,-5.3135 0,-1.10521 0.12753,-1.74283 0.72264,-1.74283 3.99575,-0.0425 6.29118,-0.97768 6.67375,-1.14771 0.80765,-0.34006 4.12327,-2.08289 4.12327,-5.14346 0,-1.87036 -1.70032,-3.14559 -3.69819,-3.14559 -2.38045,0 -4.33581,0.76514 -5.90861,2.25292 -2.93305,2.72051 -4.8034,6.37619 -4.8034,10.03188 z m 3.48566,-4.42083 c 0,-0.5526 0.97768,-3.27311 2.25292,-4.59086 1.1052,-1.14772 2.42295,-1.99788 3.48565,-1.99788 0.72264,0 2.25292,0.38258 2.25292,1.99788 0,2.678 -3.48565,5.44102 -7.60892,5.44102 -0.29756,0 -0.38257,-0.5526 -0.38257,-0.85016 z"/>
		<path d="m 739.86816,584.6865 c 0,3.1881 1.48777,5.65356 5.10095,5.65356 4.20829,0 6.3762,-4.76089 6.75877,-4.76089 0.59511,0 -0.38257,4.76089 2.59299,4.76089 2.76301,0 5.44102,-4.2933 5.44102,-5.18597 0,-0.17003 -0.12753,-0.38257 -0.46759,-0.38257 -0.68013,0 -1.65781,2.63549 -3.52816,2.63549 -0.97769,0 -1.10521,-0.89266 -1.10521,-1.82784 0,-1.27524 0.42508,-3.95324 0.89267,-7.18385 2.38044,-17.38575 2.80552,-18.74601 2.80552,-19.85122 0,-0.38257 -0.29755,-0.72263 -0.68013,-0.72263 -1.14771,0 -0.89266,0.085 -3.27311,0.68013 -1.19022,0.29755 -2.678,0.12752 -2.678,0.85015 0,0.29756 0.25505,0.46759 0.68013,0.46759 0.0425,0 1.02019,-0.0425 1.48778,-0.0425 0.63762,0 1.23273,0.42508 1.23273,1.0627 0,0.29756 -1.40277,11.47715 -1.53029,11.47715 -1.19022,0 -2.04038,-0.5526 -3.14559,-0.5526 -5.05845,0 -10.58448,6.33369 -10.58448,12.92242 z m 2.97555,-1.19022 c 0,-4.46334 3.48566,-10.83953 7.39639,-10.83953 1.14772,0 2.84803,0.5526 2.84803,1.70032 0,1.70032 -0.63762,9.18172 -2.33793,11.30712 -1.10521,1.40276 -2.76302,2.21041 -4.29331,2.21041 -2.59299,0 -3.61318,-1.91286 -3.61318,-4.37832 z"/>
		<path d="m 771.07033,586.98193 c 0,2.46547 2.678,3.57067 5.18597,3.57067 6.58874,0 11.60468,-7.60892 11.60468,-13.39001 0,-2.76301 -1.48778,-5.39851 -4.67588,-5.39851 -4.88842,0 -6.88629,3.95324 -7.4814,3.95324 -0.085,0 -0.21254,-0.34006 -0.21254,-0.63762 0,-3.06057 2.72051,-15.72795 2.72051,-16.49309 0,-0.46759 -0.34007,-0.76514 -0.80765,-0.76514 -0.25505,0 -1.02019,0.25505 -2.67801,0.46759 -1.95536,0.25504 -3.14558,0.21254 -3.14558,1.06269 0,0.59512 0.34006,0.59512 0.80765,0.59512 0.63762,0 1.1052,-0.085 1.74282,-0.085 0.85016,0 1.0627,0.29756 1.0627,0.5101 0,1.02019 -0.25505,2.50797 -0.63762,4.33581 -0.63762,3.14559 -1.14771,7.26886 -1.91286,11.68969 -0.59511,3.44315 -1.57279,7.86397 -1.57279,10.58448 z m 2.80553,-0.51009 c 0,-0.42508 0.46758,-4.97343 1.70031,-8.33156 1.36026,-3.6982 4.12328,-4.12328 5.14347,-4.12328 2.33794,0 4.16578,1.95537 4.16578,4.33582 0,4.88841 -3.91073,11.00956 -7.73645,11.00956 -2.63549,0 -3.27311,-1.44527 -3.27311,-2.89054 z"/>
		<path d="m 789.50617,595.3135 c 0,1.95536 1.70032,2.50797 3.52816,2.50797 3.99575,0 6.71626,-4.84591 8.71414,-9.90436 2.50797,-6.33369 3.52816,-12.19979 3.52816,-14.11265 0,-1.31774 -0.72264,-2.25292 -1.65781,-2.25292 -1.02019,0 -1.44527,0.80765 -1.44527,1.5728 0,1.14771 1.0627,1.99787 1.0627,3.2306 0,2.84804 -0.93518,7.39639 -1.53029,7.39639 -0.46759,0 -4.50585,-12.07226 -8.62912,-12.07226 -2.59299,0 -3.44314,3.69819 -3.44314,5.48352 0,0.72264 0.17003,0.93518 0.42507,0.93518 1.27524,0 0.38258,-3.1881 2.84804,-3.1881 2.25292,0 6.9288,10.96706 6.9288,13.3475 0,1.61531 -2.80553,7.05633 -5.27099,7.05633 -1.95537,0 -1.99787,-1.40277 -3.69819,-1.40277 -0.72264,0 -1.36026,0.68013 -1.36026,1.40277 z"/>
	</g>
	<g aria-label="PAULINE BANCROFT FLACH">
		<path d="M 321.54239,611.40351 V 650 h 8.79532 v -14.31579 h 5.28655 c 7.53217,0 13.19299,-4.44444 13.19299,-12.39766 0,-8 -5.66082,-11.88304 -13.19299,-11.88304 z m 8.79532,17.26316 v -10.24562 h 2.47954 c 3.46198,0 6.73684,1.16959 6.73684,5.1462 0,3.92983 -3.27486,5.09942 -6.73684,5.09942 z"/>
		<path d="m 374.28801,611.40351 h -8.14035 L 350.56871,650 h 9.45029 l 2.8538,-7.7193 h 14.69006 l 2.8538,7.7193 h 9.4503 z m 0.2807,23.15789 h -8.70176 l 4.3041,-11.22807 h 0.0936 z"/>
		<path d="m 425.98757,611.40351 h -8.79532 v 22.31579 c 0,6.45614 -1.96491,8.32748 -6.269,8.32748 -4.3041,0 -6.26901,-1.87134 -6.26901,-8.32748 v -22.31579 h -8.79532 v 24.88889 c 0,9.54386 5.23976,14.40935 15.06433,14.40935 9.82456,0 15.06432,-4.86549 15.06432,-14.40935 z"/>
		<path d="m 444.93568,611.40351 h -8.79533 V 650 h 22.08188 v -7.7193 h -13.28655 z"/>
		<path d="m 476.34284,611.40351 h -8.79532 V 650 h 8.79532 z"/>
		<path d="m 495.77997,626.04678 h 0.0936 L 511.21857,650 h 8.79532 v -38.59649 h -8.79532 v 23.95321 h -0.0936 l -15.34503,-23.95321 h -8.79532 V 650 h 8.79532 z"/>
		<path d="M 552.71783,611.40351 H 530.63596 V 650 h 22.08187 v -7.7193 h -13.28655 v -7.76608 h 12.72515 v -7.7193 h -12.72515 v -7.67251 h 13.28655 z"/>
		<path d="M 580.56653,611.40351 V 650 h 14.64328 c 8,0 12.63158,-4.39766 12.63158,-10.76023 0,-6.22223 -3.41521,-8.88889 -8.23392,-9.731 3.27485,-1.68421 4.81871,-4.72514 4.81871,-8.2807 0,-7.34503 -5.23977,-9.82456 -11.88304,-9.82456 z m 8.79532,15.11111 v -8.32749 h 0.70176 c 3.83625,0 5.84795,1.16959 5.84795,3.92983 0,3.22807 -2.05848,4.39766 -5.84795,4.39766 z m 0,16.70175 v -9.1228 h 2.76024 c 4.16374,0 6.45614,1.26315 6.45614,4.81871 0,3.04094 -2.2924,4.30409 -6.45614,4.30409 z"/>
		<path d="m 635.41374,611.40351 h -8.14035 L 611.69445,650 h 9.45029 l 2.8538,-7.7193 H 638.6886 L 641.5424,650 h 9.45029 z m 0.28071,23.15789 h -8.70176 l 4.30409,-11.22807 h 0.0936 z"/>
		<path d="m 666.24781,626.04678 h 0.0936 L 681.68641,650 h 8.79532 v -38.59649 h -8.79532 v 23.95321 h -0.0936 l -15.34503,-23.95321 h -8.79532 V 650 h 8.79532 z"/>
		<path d="m 720.17983,642.04678 c -8.84211,0 -12.72515,-6.17544 -12.72515,-11.36842 0,-5.1462 3.88304,-11.32164 12.72515,-11.32164 4.49123,0 7.57895,2.38597 7.57895,2.38597 l 3.74269,-7.48538 c 0,0 -4.3041,-3.55556 -12.67836,-3.55556 -10.94737,0 -20.91229,8.98246 -20.91229,20.07018 0,11.04094 10.0117,19.92982 20.91229,19.92982 8.37426,0 12.67836,-3.55555 12.67836,-3.55555 l -3.74269,-7.48538 c 0,0 -3.08772,2.38596 -7.57895,2.38596 z"/>
		<path d="M 739.9123,611.40351 V 650 h 8.79532 V 634.74854 L 760.49709,650 h 11.18129 l -13.28655,-15.95322 c 4.72514,-1.49707 7.90643,-5.38011 7.90643,-11.18128 0,-7.57895 -5.4269,-11.46199 -12.58479,-11.46199 z m 8.79532,17.12281 v -10.10527 h 1.02924 c 3.32163,0 7.29824,0.23392 7.29824,5.05263 0,4.81872 -3.97661,5.05264 -7.29824,5.05264 z"/>
		<path d="m 776.71566,630.67836 c 0,11.27486 8.04679,20.02339 19.46199,20.02339 11.08772,0 19.41521,-8.74853 19.41521,-20.02339 0,-11.27485 -8.70176,-19.97661 -19.41521,-19.97661 -10.61988,0 -19.46199,8.70176 -19.46199,19.97661 z m 9.49708,0 c 0,-5.75438 3.18129,-11.50877 9.96491,-11.50877 6.83041,0 9.91813,5.75439 9.91813,11.50877 0,5.75439 -2.90058,11.50877 -9.91813,11.50877 -7.20468,0 -9.96491,-5.75438 -9.96491,-11.50877 z"/>
		<path d="M 846.78949,611.40351 H 824.4737 V 650 h 8.79532 v -15.48538 h 12.49123 v -7.7193 h -12.49123 v -7.67251 h 13.52047 z"/>
		<path d="m 851.25515,619.12281 h 9.16959 V 650 h 8.79532 v -30.87719 h 9.16959 v -7.7193 h -27.1345 z"/>
		<path d="M 926.66519,611.40351 H 904.3494 V 650 h 8.79532 v -15.48538 h 12.49123 v -7.7193 h -12.49123 v -7.67251 h 13.52047 z"/>
		<path d="m 944.64326,611.40351 h -8.79533 V 650 h 22.08188 v -7.7193 h -13.28655 z"/>
		<path d="m 987.58846,611.40351 h -8.14035 L 963.86916,650 h 9.45029 l 2.8538,-7.7193 h 14.69006 l 2.8538,7.7193 h 9.45029 z m 0.2807,23.15789 h -8.70176 l 4.3041,-11.22807 h 0.0936 z"/>
		<path d="m 1028.7032,642.04678 c -8.8421,0 -12.7251,-6.17544 -12.7251,-11.36842 0,-5.1462 3.883,-11.32164 12.7251,-11.32164 4.4912,0 7.579,2.38597 7.579,2.38597 l 3.7426,-7.48538 c 0,0 -4.304,-3.55556 -12.6783,-3.55556 -10.9474,0 -20.9123,8.98246 -20.9123,20.07018 0,11.04094 10.0117,19.92982 20.9123,19.92982 8.3743,0 12.6783,-3.55555 12.6783,-3.55555 l -3.7426,-7.48538 c 0,0 -3.0878,2.38596 -7.579,2.38596 z"/>
		<path d="m 1057.231,634.51462 h 12.4445 V 650 h 8.7953 v -38.59649 h -8.7953 v 15.39181 h -12.4445 v -15.39181 h -8.7953 V 650 h 8.7953 z"/>
	</g>
</svg>
